<svg width="194" height="78" viewBox="0 0 194 78" fill="none" xmlns="http://www.w3.org/2000/svg">
<rect width="194" height="78" fill="#E5E5E5"/>
<path d="M194 39C194 60.5391 150.572 78 97 78C43.4284 78 0 60.5391 0 39C0 17.4609 43.4284 0 97 0C150.572 0 194 17.4609 194 39Z" fill="#522222"/>
<path d="M47.5 24.1142L48.9615 27.0248L49.0999 27.3004H49.4084H53.3452L50.3751 28.6967L49.9107 28.915L50.141 29.3736L51.4006 31.8821L47.7127 30.1483L47.5 30.0483L47.2873 30.1483L43.5994 31.8821L44.859 29.3736L45.0893 28.915L44.6249 28.6967L41.6548 27.3004H45.5916H45.9001L46.0385 27.0248L47.5 24.1142Z" stroke="#2D9CDB"/>
<path d="M47.5 46.1142L48.9615 49.0248L49.0999 49.3004H49.4084H53.3452L50.3751 50.6967L49.9107 50.915L50.141 51.3736L51.4006 53.8821L47.7127 52.1483L47.5 52.0483L47.2873 52.1483L43.5994 53.8821L44.859 51.3736L45.0893 50.915L44.6249 50.6967L41.6548 49.3004H45.5916H45.9001L46.0385 49.0248L47.5 46.1142Z" stroke="#2D9CDB"/>
<path d="M30.5 35.1142L31.9615 38.0248L32.0999 38.3004H32.4084H36.3452L33.3751 39.6967L32.9107 39.915L33.141 40.3736L34.4006 42.8821L30.7127 41.1483L30.5 41.0483L30.2873 41.1483L26.5994 42.8821L27.859 40.3736L28.0893 39.915L27.6249 39.6967L24.6548 38.3004H28.5916H28.9001L29.0385 38.0248L30.5 35.1142Z" stroke="#2D9CDB"/>
<path d="M64.5 35.1142L65.9615 38.0248L66.0999 38.3004H66.4084H70.3452L67.3751 39.6967L66.9107 39.915L67.141 40.3736L68.4006 42.8821L64.7127 41.1483L64.5 41.0483L64.2873 41.1483L60.5994 42.8821L61.859 40.3736L62.0893 39.915L61.6249 39.6967L58.6548 38.3004H62.5916H62.9001L63.0385 38.0248L64.5 35.1142Z" stroke="#2D9CDB"/>
<g filter="url(#filter0_dd)">
<path d="M85.5029 41.2822L88.5879 32.2031H91.2158L86.4609 45H83.8682L83.1914 36.4746L79.8428 45H77.25L76.4941 32.2031H79.0078L79.2627 41.2383L82.708 32.2031H84.8965L85.5029 41.2822ZM94.6172 45.1406C93.7266 45.1172 92.9678 44.8887 92.3408 44.4551C91.7197 44.0215 91.2656 43.4238 90.9785 42.6621C90.6914 41.9004 90.5918 41.0508 90.6797 40.1133L90.7148 39.709C90.8203 38.7422 91.1162 37.8604 91.6025 37.0635C92.0889 36.2666 92.7188 35.6543 93.4922 35.2266C94.2656 34.7988 95.1152 34.5967 96.041 34.6201C96.9141 34.6436 97.6611 34.8721 98.2822 35.3057C98.9092 35.7334 99.3662 36.3281 99.6533 37.0898C99.9463 37.8516 100.052 38.6982 99.9697 39.6299L99.9346 39.9551C99.7588 41.5312 99.1758 42.7998 98.1855 43.7607C97.2012 44.7158 96.0117 45.1758 94.6172 45.1406ZM97.5176 38.6367C97.4941 38.0215 97.3477 37.5439 97.0781 37.2041C96.8086 36.8584 96.4248 36.6738 95.9268 36.6504C95.2061 36.6211 94.6025 36.8818 94.1162 37.4326C93.6299 37.9775 93.3193 38.7334 93.1846 39.7002C93.1318 40.1865 93.1055 40.541 93.1055 40.7637C93.0879 41.4902 93.2139 42.0615 93.4834 42.4775C93.7529 42.8877 94.1689 43.1045 94.7314 43.1279C95.4346 43.1572 96.0293 42.8906 96.5156 42.3281C97.0078 41.7656 97.3154 40.998 97.4385 40.0254C97.5029 39.4277 97.5293 38.9648 97.5176 38.6367ZM105.217 41.4668H103.626L103.002 45H100.515L102.29 34.7607L106.28 34.7695C107.458 34.7988 108.366 35.0771 109.005 35.6045C109.649 36.1318 109.948 36.8525 109.901 37.7666C109.866 38.5049 109.655 39.1201 109.269 39.6123C108.888 40.1045 108.316 40.5029 107.555 40.8076L109.119 44.8682V45H106.465L105.217 41.4668ZM103.969 39.4189L105.507 39.4277C106.005 39.4277 106.427 39.3076 106.772 39.0674C107.118 38.8271 107.329 38.4873 107.405 38.0479C107.47 37.6729 107.399 37.3799 107.194 37.1689C106.995 36.9521 106.679 36.8379 106.245 36.8262L104.426 36.8174L103.969 39.4189ZM114.665 41.2031L113.285 42.3896L112.828 45H110.341L112.116 34.7607H114.612L113.892 38.874L114.85 37.8105L117.724 34.7607H121.028L116.537 39.4893L119.191 45H116.396L114.665 41.2031ZM131.479 34.3389H127.682L125.836 45H123.261L125.106 34.3389H121.354L121.731 32.2031H131.856L131.479 34.3389ZM133.562 45H131.074L132.85 34.7607H135.337L133.562 45ZM140.479 34.7607L141.762 41.6338L145.409 34.7607H148.749L146.974 45H144.478L144.864 42.7764L145.989 37.7314L142.113 45H140.452L139.046 37.4326L138.334 43.0752L137.991 45H135.495L137.271 34.7607H140.479ZM156.079 40.7373H151.983L151.597 42.9609H156.422L156.062 45H148.749L150.524 34.7607H157.854L157.494 36.8174H152.66L152.335 38.6895H156.439L156.079 40.7373Z" fill="#6FCF97"/>
</g>
<defs>
<filter id="filter0_dd" x="72.4941" y="32.2031" width="89.3604" height="20.9394" filterUnits="userSpaceOnUse" color-interpolation-filters="sRGB">
<feFlood flood-opacity="0" result="BackgroundImageFix"/>
<feColorMatrix in="SourceAlpha" type="matrix" values="0 0 0 0 0 0 0 0 0 0 0 0 0 0 0 0 0 0 127 0" result="hardAlpha"/>
<feOffset dy="4"/>
<feGaussianBlur stdDeviation="2"/>
<feComposite in2="hardAlpha" operator="out"/>
<feColorMatrix type="matrix" values="0 0 0 0 0 0 0 0 0 0 0 0 0 0 0 0 0 0 0.25 0"/>
<feBlend mode="normal" in2="BackgroundImageFix" result="effect1_dropShadow"/>
<feColorMatrix in="SourceAlpha" type="matrix" values="0 0 0 0 0 0 0 0 0 0 0 0 0 0 0 0 0 0 127 0" result="hardAlpha"/>
<feOffset dy="4"/>
<feGaussianBlur stdDeviation="2"/>
<feComposite in2="hardAlpha" operator="out"/>
<feColorMatrix type="matrix" values="0 0 0 0 0 0 0 0 0 0 0 0 0 0 0 0 0 0 0.25 0"/>
<feBlend mode="normal" in2="effect1_dropShadow" result="effect2_dropShadow"/>
<feBlend mode="normal" in="SourceGraphic" in2="effect2_dropShadow" result="shape"/>
</filter>
</defs>
</svg>
