<svg width="116" height="22" viewBox="0 0 116 22" fill="none" xmlns="http://www.w3.org/2000/svg">
<g filter="url(#filter0_dd)">
<path d="M13.5029 9.28223L16.5879 0.203125H19.2158L14.4609 13H11.8682L11.1914 4.47461L7.84277 13H5.25L4.49414 0.203125H7.00781L7.2627 9.23828L10.708 0.203125H12.8965L13.5029 9.28223ZM22.6172 13.1406C21.7266 13.1172 20.9678 12.8887 20.3408 12.4551C19.7197 12.0215 19.2656 11.4238 18.9785 10.6621C18.6914 9.90039 18.5918 9.05078 18.6797 8.11328L18.7148 7.70898C18.8203 6.74219 19.1162 5.86035 19.6025 5.06348C20.0889 4.2666 20.7188 3.6543 21.4922 3.22656C22.2656 2.79883 23.1152 2.59668 24.041 2.62012C24.9141 2.64355 25.6611 2.87207 26.2822 3.30566C26.9092 3.7334 27.3662 4.32812 27.6533 5.08984C27.9463 5.85156 28.0518 6.69824 27.9697 7.62988L27.9346 7.95508C27.7588 9.53125 27.1758 10.7998 26.1855 11.7607C25.2012 12.7158 24.0117 13.1758 22.6172 13.1406ZM25.5176 6.63672C25.4941 6.02148 25.3477 5.54395 25.0781 5.2041C24.8086 4.8584 24.4248 4.67383 23.9268 4.65039C23.2061 4.62109 22.6025 4.88184 22.1162 5.43262C21.6299 5.97754 21.3193 6.7334 21.1846 7.7002C21.1318 8.18652 21.1055 8.54102 21.1055 8.76367C21.0879 9.49023 21.2139 10.0615 21.4834 10.4775C21.7529 10.8877 22.1689 11.1045 22.7314 11.1279C23.4346 11.1572 24.0293 10.8906 24.5156 10.3281C25.0078 9.76562 25.3154 8.99805 25.4385 8.02539C25.5029 7.42773 25.5293 6.96484 25.5176 6.63672ZM33.2168 9.4668H31.626L31.002 13H28.5146L30.29 2.76074L34.2803 2.76953C35.458 2.79883 36.3662 3.07715 37.0049 3.60449C37.6494 4.13184 37.9482 4.85254 37.9014 5.7666C37.8662 6.50488 37.6553 7.12012 37.2686 7.6123C36.8877 8.10449 36.3164 8.50293 35.5547 8.80762L37.1191 12.8682V13H34.4648L33.2168 9.4668ZM31.9688 7.41895L33.5068 7.42773C34.0049 7.42773 34.4268 7.30762 34.7725 7.06738C35.1182 6.82715 35.3291 6.4873 35.4053 6.04785C35.4697 5.67285 35.3994 5.37988 35.1943 5.16895C34.9951 4.95215 34.6787 4.83789 34.2451 4.82617L32.4258 4.81738L31.9688 7.41895ZM42.665 9.20312L41.2852 10.3896L40.8281 13H38.3408L40.1162 2.76074H42.6123L41.8916 6.87402L42.8496 5.81055L45.7236 2.76074H49.0283L44.5371 7.48926L47.1914 13H44.3965L42.665 9.20312ZM50.6631 13H48.1758L49.9512 2.76074H52.4385L50.6631 13ZM61.4736 13H59.083L56.2178 6.50488L55.0928 13H52.5967L54.3721 2.76074H56.7803L59.6367 9.26465L60.7705 2.76074H63.249L61.4736 13ZM72.2754 11.7695C71.8828 12.209 71.3057 12.5518 70.5439 12.7979C69.7881 13.0381 68.9121 13.1494 67.916 13.1318C67.0195 13.1201 66.252 12.9033 65.6133 12.4814C64.9746 12.0596 64.5088 11.4736 64.2158 10.7236C63.9287 9.97363 63.835 9.11816 63.9346 8.15723L63.9873 7.62109C64.1104 6.64258 64.4062 5.76953 64.875 5.00195C65.3496 4.22852 65.9648 3.63379 66.7207 3.21777C67.4766 2.7959 68.3115 2.59668 69.2256 2.62012C70.4033 2.64355 71.332 2.95117 72.0117 3.54297C72.6973 4.12891 73.0898 5.01074 73.1895 6.18848L70.8252 6.17969C70.7783 5.66992 70.626 5.29492 70.3682 5.05469C70.1162 4.80859 69.7295 4.67676 69.208 4.65918C68.3936 4.62402 67.7373 4.9375 67.2393 5.59961C66.7412 6.25586 66.457 7.25488 66.3867 8.59668V9.21191C66.4043 9.79785 66.5625 10.2549 66.8613 10.583C67.166 10.9111 67.5967 11.0781 68.1533 11.084C68.7686 11.1074 69.3223 10.9932 69.8145 10.7412L70.1221 9.27344H68.2061L68.5312 7.47168H72.9346L72.2754 11.7695ZM84.9141 2.33887H81.1172L79.2715 13H76.6963L78.542 2.33887H74.7891L75.167 0.203125H85.292L84.9141 2.33887ZM86.9971 13H84.5098L86.2852 2.76074H88.7725L86.9971 13ZM93.9141 2.76074L95.1973 9.63379L98.8447 2.76074H102.185L100.409 13H97.9131L98.2998 10.7764L99.4248 5.73145L95.5488 13H93.8877L92.4814 5.43262L91.7695 11.0752L91.4268 13H88.9307L90.7061 2.76074H93.9141ZM109.515 8.7373H105.419L105.032 10.9609H109.857L109.497 13H102.185L103.96 2.76074H111.29L110.93 4.81738H106.096L105.771 6.68945H109.875L109.515 8.7373Z" fill="#4F4F4F"/>
</g>
<defs>
<filter id="filter0_dd" x="0.494141" y="0.203125" width="114.796" height="20.9394" filterUnits="userSpaceOnUse" color-interpolation-filters="sRGB">
<feFlood flood-opacity="0" result="BackgroundImageFix"/>
<feColorMatrix in="SourceAlpha" type="matrix" values="0 0 0 0 0 0 0 0 0 0 0 0 0 0 0 0 0 0 127 0" result="hardAlpha"/>
<feOffset dy="4"/>
<feGaussianBlur stdDeviation="2"/>
<feComposite in2="hardAlpha" operator="out"/>
<feColorMatrix type="matrix" values="0 0 0 0 0 0 0 0 0 0 0 0 0 0 0 0 0 0 0.25 0"/>
<feBlend mode="normal" in2="BackgroundImageFix" result="effect1_dropShadow"/>
<feColorMatrix in="SourceAlpha" type="matrix" values="0 0 0 0 0 0 0 0 0 0 0 0 0 0 0 0 0 0 127 0" result="hardAlpha"/>
<feOffset dy="4"/>
<feGaussianBlur stdDeviation="2"/>
<feComposite in2="hardAlpha" operator="out"/>
<feColorMatrix type="matrix" values="0 0 0 0 0 0 0 0 0 0 0 0 0 0 0 0 0 0 0.25 0"/>
<feBlend mode="normal" in2="effect1_dropShadow" result="effect2_dropShadow"/>
<feBlend mode="normal" in="SourceGraphic" in2="effect2_dropShadow" result="shape"/>
</filter>
</defs>
</svg>
